<?xml version="1.0" encoding="UTF-8"?>
<svg width="1920" height="1080" viewBox="0 0 1920 1080" xmlns="http://www.w3.org/2000/svg">
  <!-- Dark gradient background -->
  <defs>
    <linearGradient id="bgGradient" x1="0%" y1="0%" x2="100%" y2="100%">
      <stop offset="0%" style="stop-color:#0a192f;stop-opacity:1" />
      <stop offset="100%" style="stop-color:#112240;stop-opacity:1" />
    </linearGradient>
    
    <!-- Circuit pattern -->
    <pattern id="circuitPattern" x="0" y="0" width="100" height="100" patternUnits="userSpaceOnUse">
      <path d="M10 10h80v80h-80z" fill="none" stroke="#64ffda" stroke-width="0.5" opacity="0.1"/>
      <circle cx="50" cy="50" r="3" fill="#64ffda" opacity="0.2"/>
      <path d="M50 10v30M10 50h30M50 90v-30M90 50h-30" stroke="#64ffda" stroke-width="0.5" opacity="0.1"/>
    </pattern>
  </defs>
  
  <!-- Background -->
  <rect width="100%" height="100%" fill="url(#bgGradient)"/>
  <rect width="100%" height="100%" fill="url(#circuitPattern)"/>
  
  <!-- Central cyborg elements -->
  <g transform="translate(960,540)" stroke="#64ffda" fill="none" opacity="0.15">
    <!-- Brain circuits -->
    <path d="M0 -200 Q100 -150 150 -50 T200 100" stroke-width="2"/>
    <path d="M0 -200 Q-100 -150 -150 -50 T-200 100" stroke-width="2"/>
    <circle cx="0" cy="-100" r="80" stroke-width="3"/>
    
    <!-- Face structure -->
    <path d="M-100 0 Q0 100 100 0" stroke-width="4"/>
    <rect x="-150" y="-150" width="300" height="300" rx="20" stroke-width="2"/>
    
    <!-- Tech details -->
    <circle cx="-70" cy="-50" r="20" stroke-width="2"/>
    <circle cx="70" cy="-50" r="20" stroke-width="2"/>
    <path d="M-40 50 L40 50" stroke-width="3"/>
  </g>
  
  <!-- Animated pulse effect -->
  <circle cx="960" cy="540" r="400" stroke="#64ffda" stroke-width="2" fill="none" opacity="0.1">
    <animate attributeName="r" values="400;450;400" dur="4s" repeatCount="indefinite"/>
    <animate attributeName="opacity" values="0.1;0.2;0.1" dur="4s" repeatCount="indefinite"/>
  </circle>
</svg> 